<svg width="100" height="80" viewBox="0 0 89 66" fill="none" xmlns="http://www.w3.org/2000/svg">
<path d="M87 9.5H80V7.5C80 3.64 76.86 0.5 73 0.5C69.14 0.5 66 3.64 66 7.5V9.5H58V7.5C58 3.64 54.86 0.5 51 0.5C47.14 0.5 44 3.64 44 7.5V9.5H36V7.5C36 3.64 32.86 0.5 29 0.5C25.14 0.5 22 3.64 22 7.5V9.5H15C14.96 9.5 14.93 9.51 14.89 9.51C14.81 9.51 14.74 9.52 14.66 9.53C14.6 9.54 14.55 9.55 14.49 9.57C14.42 9.59 14.36 9.61 14.29 9.63C14.23 9.65 14.18 9.68 14.12 9.7C14.06 9.73 14 9.76 13.94 9.8C13.89 9.83 13.84 9.87 13.79 9.9C13.74 9.94 13.68 9.98 13.63 10.03C13.59 10.07 13.54 10.12 13.5 10.16C13.46 10.21 13.41 10.26 13.37 10.31C13.33 10.36 13.3 10.42 13.27 10.47C13.24 10.52 13.21 10.58 13.18 10.64C13.15 10.71 13.12 10.77 13.1 10.84C13.09 10.88 13.07 10.91 13.06 10.95L1.06 53.95C0.890004 54.55 1.02 55.2 1.39 55.7C1.79 56.21 2.37 56.5 3 56.5H13V63.5C13 64.6 13.9 65.5 15 65.5H87C88.1 65.5 89 64.6 89 63.5V11.5C89 10.4 88.1 9.5 87 9.5ZM70 7.5C70 5.85 71.35 4.5 73 4.5C74.65 4.5 76 5.85 76 7.5V9.5H70V7.5ZM48 7.5C48 5.85 49.35 4.5 51 4.5C52.65 4.5 54 5.85 54 7.5V9.5H48V7.5ZM26 7.5C26 5.85 27.35 4.5 29 4.5C30.65 4.5 32 5.85 32 7.5V9.5H26V7.5ZM5.63 52.5L13 26.11V52.5H5.63ZM85 61.5H17V13.5H32V17.5C32 18.6 32.9 19.5 34 19.5C35.1 19.5 36 18.6 36 17.5V13.5H54V17.5C54 18.6 54.9 19.5 56 19.5C57.1 19.5 58 18.6 58 17.5V13.5H76V17.5C76 18.6 76.9 19.5 78 19.5C79.1 19.5 80 18.6 80 17.5V13.5H85V61.5ZM40.96 30.11C40.99 30.24 41 30.37 41 30.5C41 30.63 40.99 30.76 40.96 30.89C40.94 31.02 40.9 31.14 40.85 31.27C40.8 31.39 40.73 31.5 40.66 31.61C40.59 31.72 40.51 31.82 40.41 31.91C40.32 32.01 40.22 32.09 40.11 32.16C40 32.24 39.89 32.3 39.76 32.35C39.64 32.4 39.52 32.44 39.39 32.46C39.26 32.49 39.13 32.5 39 32.5C38.87 32.5 38.74 32.49 38.61 32.46C38.48 32.44 38.35 32.4 38.23 32.35C38.11 32.3 38 32.24 37.89 32.16C37.78 32.09 37.68 32.01 37.59 31.91C37.49 31.82 37.41 31.72 37.34 31.61C37.27 31.5 37.2 31.39 37.15 31.27C37.1 31.14 37.06 31.02 37.04 30.89C37.01 30.76 37 30.63 37 30.5C37 30.37 37.01 30.24 37.04 30.11C37.06 29.98 37.1 29.86 37.15 29.74C37.2 29.61 37.27 29.5 37.34 29.39C37.41 29.28 37.49 29.18 37.59 29.09C37.68 28.99 37.78 28.91 37.89 28.84C38 28.77 38.11 28.7 38.23 28.65C38.36 28.6 38.48 28.57 38.61 28.54C39.25 28.41 39.95 28.62 40.41 29.09C40.51 29.18 40.59 29.28 40.66 29.39C40.73 29.5 40.8 29.61 40.85 29.74C40.9 29.86 40.94 29.98 40.96 30.11ZM52.96 30.11C52.99 30.24 53 30.37 53 30.5C53 31.03 52.79 31.54 52.41 31.91C52.32 32.01 52.22 32.09 52.11 32.16C52 32.23 51.89 32.3 51.76 32.35C51.64 32.4 51.52 32.44 51.39 32.46C51.26 32.49 51.13 32.5 51 32.5C50.47 32.5 49.96 32.29 49.59 31.91C49.21 31.54 49 31.03 49 30.5C49 30.37 49.01 30.24 49.04 30.11C49.06 29.98 49.1 29.86 49.15 29.73C49.2 29.61 49.27 29.5 49.34 29.39C49.41 29.28 49.49 29.18 49.59 29.09C49.68 28.99 49.78 28.91 49.89 28.84C50 28.77 50.11 28.7 50.23 28.65C50.36 28.6 50.48 28.57 50.61 28.54C50.87 28.49 51.13 28.49 51.39 28.54C51.52 28.57 51.64 28.6 51.76 28.65C51.89 28.7 52 28.77 52.11 28.84C52.22 28.91 52.32 28.99 52.41 29.09C52.51 29.18 52.59 29.28 52.66 29.39C52.73 29.5 52.8 29.61 52.85 29.73C52.9 29.86 52.94 29.98 52.96 30.11ZM64.41 29.09C64.79 29.46 65 29.97 65 30.5C65 31.03 64.79 31.54 64.41 31.91C64.04 32.29 63.53 32.5 63 32.5C62.47 32.5 61.96 32.29 61.59 31.91C61.21 31.54 61 31.03 61 30.5C61 29.97 61.21 29.46 61.59 29.09C62.33 28.34 63.67 28.34 64.41 29.09ZM76.96 30.11C76.99 30.24 77 30.37 77 30.5C77 30.63 76.99 30.76 76.96 30.89C76.94 31.02 76.9 31.14 76.85 31.26C76.8 31.39 76.73 31.5 76.66 31.61C76.59 31.72 76.51 31.82 76.41 31.91C76.32 32.01 76.22 32.09 76.11 32.16C76 32.23 75.89 32.3 75.77 32.35C75.64 32.4 75.52 32.44 75.39 32.46C75.26 32.49 75.13 32.5 75 32.5C74.47 32.5 73.96 32.29 73.59 31.91C73.49 31.82 73.41 31.72 73.34 31.61C73.27 31.5 73.2 31.39 73.15 31.26C73.1 31.14 73.06 31.02 73.04 30.89C73.01 30.76 73 30.63 73 30.5C73 29.97 73.21 29.46 73.59 29.09C73.68 28.99 73.78 28.91 73.89 28.84C74 28.77 74.11 28.7 74.23 28.65C74.35 28.6 74.48 28.56 74.61 28.54C74.86 28.49 75.13 28.49 75.39 28.54C75.52 28.56 75.64 28.6 75.77 28.65C75.89 28.7 76 28.77 76.11 28.84C76.22 28.91 76.32 28.99 76.41 29.09C76.51 29.18 76.59 29.28 76.66 29.39C76.73 29.5 76.8 29.61 76.85 29.74C76.9 29.86 76.94 29.98 76.96 30.11ZM28.96 40.11C28.99 40.24 29 40.37 29 40.5C29 41.03 28.79 41.54 28.42 41.91C28.04 42.29 27.54 42.5 27 42.5C26.46 42.5 25.96 42.29 25.59 41.91C25.21 41.54 25 41.03 25 40.5C25 39.97 25.21 39.46 25.59 39.09C25.68 38.99 25.78 38.91 25.89 38.84C26 38.76 26.11 38.7 26.24 38.65C26.36 38.6 26.48 38.56 26.61 38.54C26.87 38.49 27.13 38.49 27.39 38.54C27.52 38.56 27.65 38.6 27.77 38.65C27.89 38.7 28 38.76 28.11 38.84C28.22 38.91 28.32 38.99 28.42 39.09C28.51 39.18 28.59 39.28 28.66 39.39C28.74 39.5 28.8 39.61 28.85 39.73C28.9 39.85 28.94 39.98 28.96 40.11ZM40.41 39.09C40.79 39.46 41 39.97 41 40.5C41 41.03 40.79 41.54 40.41 41.91C40.04 42.29 39.53 42.5 39 42.5C38.47 42.5 37.96 42.29 37.59 41.91C37.21 41.54 37 41.03 37 40.5C37 40.37 37.01 40.24 37.04 40.11C37.07 39.98 37.1 39.85 37.15 39.73C37.2 39.61 37.27 39.5 37.34 39.39C37.41 39.28 37.49 39.18 37.59 39.09C37.68 38.99 37.78 38.91 37.89 38.84C38 38.76 38.11 38.7 38.23 38.65C38.36 38.6 38.48 38.56 38.61 38.54C38.87 38.49 39.13 38.49 39.39 38.54C39.52 38.56 39.64 38.6 39.77 38.65C39.89 38.7 40 38.76 40.11 38.84C40.22 38.91 40.32 38.99 40.41 39.09ZM52.41 39.09C52.79 39.46 53 39.97 53 40.5C53 41.03 52.79 41.54 52.41 41.91C52.04 42.29 51.54 42.5 51 42.5C50.46 42.5 49.96 42.29 49.59 41.91C49.21 41.54 49 41.03 49 40.5C49 40.37 49.01 40.24 49.04 40.11C49.06 39.98 49.1 39.85 49.15 39.73C49.2 39.61 49.26 39.5 49.34 39.39C49.41 39.28 49.49 39.18 49.59 39.09C49.68 38.99 49.78 38.91 49.89 38.84C50 38.76 50.11 38.7 50.23 38.65C50.35 38.6 50.48 38.56 50.61 38.54C51.26 38.41 51.95 38.62 52.41 39.09ZM64.41 39.09C64.79 39.46 65 39.97 65 40.5C65 40.63 64.99 40.77 64.96 40.89C64.94 41.02 64.9 41.15 64.85 41.27C64.8 41.39 64.74 41.5 64.66 41.61C64.59 41.72 64.51 41.82 64.41 41.91C64.32 42.01 64.22 42.09 64.11 42.16C64 42.24 63.88 42.3 63.77 42.35C63.65 42.4 63.52 42.44 63.39 42.46C63.26 42.49 63.13 42.5 63 42.5C62.73 42.5 62.48 42.45 62.23 42.35C61.99 42.25 61.77 42.1 61.59 41.91C61.49 41.82 61.41 41.72 61.33 41.61C61.26 41.5 61.2 41.39 61.15 41.27C61.1 41.15 61.06 41.02 61.04 40.89C61.01 40.77 61 40.63 61 40.5C61 40.37 61.01 40.24 61.04 40.11C61.06 39.98 61.1 39.85 61.15 39.73C61.2 39.61 61.26 39.5 61.34 39.39C61.41 39.28 61.49 39.18 61.59 39.09C62.05 38.62 62.74 38.4 63.39 38.54C63.52 38.56 63.64 38.6 63.76 38.65C63.89 38.7 64 38.77 64.11 38.84C64.22 38.91 64.32 38.99 64.41 39.09ZM76.41 39.09C76.79 39.46 77 39.97 77 40.5C77 40.63 76.99 40.76 76.96 40.89C76.94 41.02 76.9 41.15 76.85 41.27C76.8 41.39 76.74 41.5 76.66 41.61C76.59 41.72 76.51 41.82 76.41 41.91C76.32 42.01 76.22 42.09 76.11 42.16C76 42.24 75.89 42.3 75.77 42.35C75.65 42.4 75.52 42.44 75.39 42.46C75.26 42.49 75.13 42.5 75 42.5C74.73 42.5 74.48 42.45 74.23 42.35C73.99 42.25 73.77 42.1 73.59 41.91C73.49 41.82 73.41 41.72 73.34 41.61C73.26 41.5 73.2 41.39 73.15 41.27C73.1 41.15 73.06 41.02 73.04 40.89C73.01 40.76 73 40.63 73 40.5C73 40.37 73.01 40.24 73.04 40.11C73.06 39.98 73.1 39.85 73.15 39.73C73.2 39.61 73.27 39.5 73.34 39.39C73.41 39.28 73.49 39.18 73.59 39.09C74.05 38.62 74.74 38.41 75.39 38.54C75.52 38.56 75.64 38.6 75.77 38.65C75.89 38.7 76 38.77 76.11 38.84C76.22 38.91 76.32 38.99 76.41 39.09ZM28.42 49.09C28.79 49.46 29 49.97 29 50.5C29 51.03 28.79 51.54 28.42 51.91C28.23 52.1 28.01 52.25 27.77 52.35C27.52 52.45 27.27 52.5 27 52.5C26.47 52.5 25.96 52.29 25.59 51.91C25.21 51.54 25 51.03 25 50.5C25 49.97 25.21 49.46 25.59 49.09C26.33 48.34 27.67 48.34 28.42 49.09ZM40.41 49.09C40.79 49.46 41 49.97 41 50.5C41 51.03 40.79 51.54 40.41 51.91C40.04 52.29 39.54 52.5 39 52.5C38.46 52.5 37.96 52.29 37.59 51.91C37.21 51.54 37 51.03 37 50.5C37 49.97 37.21 49.46 37.59 49.09C38.05 48.62 38.74 48.4 39.39 48.54C39.52 48.56 39.64 48.6 39.77 48.65C39.89 48.7 40 48.77 40.11 48.84C40.22 48.91 40.32 48.99 40.41 49.09ZM52.41 49.09C52.79 49.46 53 49.97 53 50.5C53 50.77 52.95 51.02 52.85 51.27C52.75 51.51 52.6 51.73 52.41 51.91C52.32 52.01 52.22 52.09 52.11 52.16C52 52.24 51.88 52.3 51.77 52.35C51.65 52.4 51.52 52.44 51.39 52.46C51.26 52.49 51.13 52.5 51 52.5C50.73 52.5 50.48 52.45 50.23 52.35C49.99 52.25 49.77 52.1 49.59 51.91C49.21 51.54 49 51.03 49 50.5C49 49.97 49.21 49.46 49.59 49.09C49.68 48.99 49.78 48.91 49.89 48.84C50 48.77 50.11 48.7 50.23 48.65C50.35 48.6 50.48 48.56 50.61 48.54C51.26 48.41 51.95 48.62 52.41 49.09Z" fill="#1b1b1b"/>
</svg>
